<?xml version="1.0" standalone="no"?>
<!DOCTYPE svg PUBLIC "-//W3C//DTD SVG 20010904//EN"
 "http://www.w3.org/TR/2001/REC-SVG-20010904/DTD/svg10.dtd">
<svg version="1.0" xmlns="http://www.w3.org/2000/svg"
 width="160.000000pt" height="160.000000pt" viewBox="0 0 160.000000 160.000000"
 preserveAspectRatio="xMidYMid meet">
<metadata>
Created by potrace 1.11, written by Peter Selinger 2001-2013
</metadata>
<g transform="translate(0.000000,160.000000) scale(0.100000,-0.100000)"
fill="#000000" stroke="none">
<path d="M172 1478 c-19 -24 -27 -83 -27 -193 0 -94 3 -115 21 -146 18 -29 20
-44 14 -78 -13 -70 9 -143 63 -207 20 -24 25 -45 30 -115 17 -231 137 -424
321 -515 75 -36 86 -47 66 -59 -15 -10 -12 -19 13 -34 19 -13 21 -12 10 1 -15
17 -7 29 13 21 8 -3 11 -10 7 -17 -4 -6 1 -5 10 2 9 8 20 11 26 8 5 -4 16 0
24 9 13 13 16 13 21 0 3 -8 11 -15 18 -15 9 0 8 3 -2 10 -11 7 -6 8 18 5 20
-2 32 1 32 8 0 8 3 8 8 2 7 -10 20 -13 73 -19 14 -1 31 -6 37 -10 8 -5 10 -2
6 8 -3 9 -10 14 -14 11 -5 -3 -12 0 -16 7 -4 7 -4 10 0 6 4 -3 21 -2 37 2 20
6 29 5 29 -3 0 -9 2 -9 8 0 5 8 16 8 44 -2 21 -7 58 -13 83 -13 25 -1 50 -4
55 -7 5 -3 11 -1 14 4 3 4 20 11 37 15 28 5 67 31 111 72 49 46 93 191 103
336 11 157 -26 271 -122 366 -74 75 -162 111 -278 115 -31 2 -41 6 -43 22 -8
42 -56 126 -90 156 -60 53 -126 78 -227 86 -51 4 -63 9 -83 34 -32 40 -76 61
-132 63 -35 1 -55 8 -79 29 -34 28 -47 31 -118 28 -22 -1 -44 3 -48 8 -9 15
-60 14 -73 -1z m538 -1306 c8 -2 23 -4 32 -5 9 -1 15 -3 12 -6 -8 -8 -44 -8
-44 0 0 9 -20 6 -38 -5 -11 -7 -11 -4 -1 13 8 11 16 17 19 13 3 -4 12 -8 20
-10z m220 -12 c0 -5 -5 -10 -11 -10 -5 0 -7 5 -4 10 3 6 8 10 11 10 2 0 4 -4
4 -10z"/>
<path d="M619 188 c15 -21 31 -23 31 -6 0 6 -3 8 -7 5 -3 -4 -13 -1 -22 6 -14
11 -14 10 -2 -5z"/>
<path d="M436 182 c-3 -5 1 -9 9 -9 8 0 12 4 9 9 -3 4 -7 8 -9 8 -2 0 -6 -4
-9 -8z"/>
<path d="M513 169 c-2 -23 3 -25 10 -4 4 8 3 16 -1 19 -4 3 -9 -4 -9 -15z"/>
<path d="M574 166 c1 -8 5 -18 8 -22 4 -3 5 1 4 10 -1 8 -5 18 -8 22 -4 3 -5
-1 -4 -10z"/>
<path d="M535 160 c-3 -6 1 -7 9 -4 18 7 21 14 7 14 -6 0 -13 -4 -16 -10z"/>
<path d="M600 160 c0 -5 5 -10 10 -10 6 0 10 5 10 10 0 6 -4 10 -10 10 -5 0
-10 -4 -10 -10z"/>
<path d="M980 157 c0 -2 6 -10 14 -16 11 -9 16 -9 22 1 4 7 4 10 -1 6 -4 -4
-14 -3 -22 3 -7 6 -13 9 -13 6z"/>
<path d="M550 141 c0 -6 4 -13 10 -16 6 -3 7 1 4 9 -7 18 -14 21 -14 7z"/>
<path d="M850 141 c0 -6 4 -13 10 -16 6 -3 7 1 4 9 -7 18 -14 21 -14 7z"/>
<path d="M771 124 c0 -11 3 -14 6 -6 3 7 2 16 -1 19 -3 4 -6 -2 -5 -13z"/>
</g>
</svg>
